<?xml version="1.0" standalone="no"?>
<!DOCTYPE svg PUBLIC "-//W3C//DTD SVG 20010904//EN"
 "http://www.w3.org/TR/2001/REC-SVG-20010904/DTD/svg10.dtd">
<svg version="1.0" xmlns="http://www.w3.org/2000/svg"
 width="696.000000pt" height="212.000000pt" viewBox="0 0 696.000000 212.000000"
 preserveAspectRatio="xMidYMid meet">

<g transform="translate(0.000000,212.000000) scale(0.100000,-0.100000)"
fill="#ffffff" stroke="none">
<path d="M0 1060 l0 -1060 3480 0 3480 0 0 1060 0 1060 -3480 0 -3480 0 0
-1060z m1043 557 c16 -10 59 -104 147 -316 l125 -302 3 310 2 310 36 11 c42
14 117 8 139 -10 13 -11 15 -86 15 -566 l0 -553 -23 -27 c-31 -36 -111 -46
-144 -18 -13 12 -70 138 -145 323 l-123 303 -5 -308 -5 -308 -25 -13 c-35 -18
-111 -16 -138 3 l-22 15 0 557 c1 584 0 573 45 600 24 15 88 9 118 -11z m1041
-389 c10 -23 8 -23 80 12 112 55 189 55 302 0 34 -17 64 -30 67 -30 15 0 21
54 26 233 l6 198 63 -32 c160 -83 242 -222 242 -410 l0 -77 41 -24 41 -24 -36
-32 c-37 -32 -43 -42 -27 -42 5 0 22 -5 36 -10 l27 -10 -36 -41 c-41 -44 -40
-54 4 -64 66 -14 25 -49 -118 -100 -94 -33 -148 -61 -239 -120 -158 -104 -190
-130 -214 -176 -10 -22 -26 -39 -34 -39 -8 0 -24 17 -34 39 -24 46 -57 73
-215 176 -92 60 -148 88 -240 121 -141 50 -181 85 -116 99 16 4 32 10 35 14 2
5 -12 27 -31 50 l-35 41 26 10 c14 5 31 10 38 10 6 0 -6 17 -26 38 l-37 38 39
22 39 22 4 103 c6 138 30 198 113 286 41 43 86 79 127 100 l63 32 5 -198 c3
-109 10 -206 14 -215z m1482 396 c76 -36 144 -193 147 -339 2 -70 -1 -86 -25
-125 -14 -25 -35 -54 -47 -64 -27 -25 -27 -31 8 -75 89 -114 100 -236 34 -413
-19 -51 -40 -86 -73 -120 l-46 -48 -212 0 c-207 0 -211 0 -226 22 -14 20 -16
92 -16 580 0 545 0 558 20 578 19 19 33 20 211 20 156 0 197 -3 225 -16z m778
7 c21 -5 43 -14 47 -18 5 -5 50 -257 100 -559 67 -410 87 -555 80 -571 -22
-48 -147 -55 -175 -10 -7 12 -19 58 -25 102 -19 126 -8 116 -119 113 l-96 -3
-18 -105 c-12 -73 -23 -109 -35 -117 -9 -7 -42 -13 -73 -13 -69 0 -100 19
-100 61 0 41 169 1059 180 1086 5 13 23 26 42 32 43 12 142 13 192 2z m611
-22 c12 -13 75 -154 141 -313 l119 -289 2 299 c3 291 4 299 24 317 27 22 116
23 147 1 l22 -15 0 -555 c0 -343 -4 -562 -10 -574 -21 -38 -123 -53 -157 -22
-11 9 -71 143 -133 297 -62 154 -119 291 -126 305 -11 21 -13 -24 -14 -288 l0
-312 -26 -10 c-39 -15 -117 -12 -142 6 l-22 15 0 555 0 556 30 30 c28 27 36
30 77 25 30 -3 53 -13 68 -28z m854 20 c17 -6 32 -12 33 -12 1 -1 4 -85 7
-186 l6 -184 105 192 c75 138 111 193 126 197 52 13 154 -38 154 -78 0 -11
-61 -133 -135 -270 l-134 -251 134 -247 c74 -137 135 -257 135 -268 0 -25 -41
-58 -89 -73 -74 -22 -75 -21 -190 189 l-106 192 -5 -179 c-3 -122 -9 -184 -17
-192 -18 -18 -118 -24 -153 -9 l-30 12 0 573 c0 446 3 575 13 583 27 22 98 28
146 11z"/>
<path d="M3310 1290 l0 -150 63 0 c41 0 70 5 85 16 60 42 81 167 42 244 l-20
40 -85 0 -85 0 0 -150z"/>
<path d="M3310 790 l0 -151 88 3 87 3 18 36 c23 47 24 146 3 187 -28 54 -61
72 -132 72 l-64 0 0 -150z"/>
<path d="M4226 1103 c-16 -93 -30 -180 -33 -195 l-5 -28 67 0 c65 0 67 1 62
23 -3 12 -18 99 -32 192 -15 94 -28 171 -29 173 -2 1 -15 -73 -30 -165z"/>
</g>
</svg>
